HIERARCHY
ROOT Hips
{
    OFFSET 0.000000 0.000000 0.000000
    CHANNELS 6 Xposition Yposition Zposition Zrotation Xrotation Yrotation
        JOINT Chest
        {
            OFFSET -0.000000 32.910728 -0.000000
            CHANNELS 3 Zrotation Xrotation Yrotation
            JOINT Neck
            {
                OFFSET -0.000000 24.872103 0.000000
                CHANNELS 3 Zrotation Xrotation Yrotation
                JOINT Head
                {
                    OFFSET -0.000000 10.694444 0.000000
                    CHANNELS 3 Zrotation Xrotation Yrotation
                    End Site
                    {
                        OFFSET -0.000000 16.527781 0.000000
                    }
                }
            }
            JOINT LeftCollar
            {
                OFFSET -0.000000 24.872103 0.000000
                CHANNELS 3 Zrotation Xrotation Yrotation
                JOINT LeftShoulder
                {
                    OFFSET 20.500000 -0.000000 0.000000
                    CHANNELS 3 Zrotation Xrotation Yrotation
                    JOINT LeftElbow
                    {
                        OFFSET 20.261999 0.000000 0.000000
                        CHANNELS 3 Zrotation Xrotation Yrotation
                        JOINT LeftWrist
                        {
                            OFFSET 25.372869 0.000000 0.000000
                            CHANNELS 3 Zrotation Xrotation Yrotation
                            End Site
                            {
                                OFFSET 0.000000 -14.583331 0.000000
                            }
                        }
                    }
                }
            }
            JOINT RightCollar
            {
                OFFSET -0.000000 24.872103 0.000000
                CHANNELS 3 Zrotation Xrotation Yrotation
                JOINT RightShoulder
                {
                    OFFSET -20.500000 0.000000 0.000000
                    CHANNELS 3 Zrotation Xrotation Yrotation
                    JOINT RightElbow
                    {
                        OFFSET -20.261999 0.000000 0.000000
                        CHANNELS 3 Zrotation Xrotation Yrotation
                        JOINT RightWrist
                        {
                            OFFSET -25.372869 0.000000 0.000000
                            CHANNELS 3 Zrotation Xrotation Yrotation
                            End Site
                            {
                                OFFSET -0.000000 -14.583331 0.000000
                            }
                        }
                    }
                }
            }
        }
    JOINT LeftHip
    {
        OFFSET 11.666668 0.000000 0.000000
        CHANNELS 3 Zrotation Xrotation Yrotation
        JOINT LeftKnee
        {
            OFFSET -0.000000 -37.459236 0.000000
            CHANNELS 3 Zrotation Xrotation Yrotation
            JOINT LeftAnkle
            {
                OFFSET -0.000000 -38.972313 0.000000
                CHANNELS 3 Zrotation Xrotation Yrotation
                End Site
                {
                    OFFSET -0.000000 -4.861111 16.527781
                }
            }
        }
    }
    JOINT RightHip
    {
        OFFSET -11.666668 0.000000 0.000000
        CHANNELS 3 Zrotation Xrotation Yrotation
        JOINT RightKnee
        {
            OFFSET -0.000000 -37.459236 0.000000
            CHANNELS 3 Zrotation Xrotation Yrotation
            JOINT RightAnkle
            {
                OFFSET -0.000000 -38.972313 0.000000
                CHANNELS 3 Zrotation Xrotation Yrotation
                End Site
                {
                    OFFSET -0.000000 -4.861111 16.527781
                }
            }
        }
    }
}
MOTION
Frames:    8
Frame Time:    0.010000
8.162121    86.160484    -17.887177    -3.151026    0.131726    -67.930214    -3.299615    19.614056    0.227562    2.353651    -4.541531    7.172251    -2.422304    -8.210464    6.840934    -28.571644    -1.761836    6.911268    17.196220    70.417908    -71.734184    36.081615    -7.672217    -23.323763    87.568100    32.544773    109.978317    28.044643    -4.779666    -18.865385    -7.347701    49.799644    60.353561    -15.575952    -11.483478    72.513092    -82.489784    15.705688    27.249756    0.931401    -11.522816    3.011434    2.653944    23.899483    4.423763    -2.397530    -6.574296    0.904904    -0.381159    -4.432291    -1.717031    -1.960183    18.901020    -0.163667    0.758799    -11.886828    -0.056840    
8.297721    86.174561    -17.668522    -3.051018    0.276923    -68.111954    -3.489819    19.456856    0.112903    2.156282    -4.623277    7.133977    -2.610609    -8.500355    6.852666    -28.521759    -1.795556    7.135128    17.609539    70.361168    -72.159042    36.024063    -7.573410    -22.844765    88.804535    30.168924    108.835052    28.071619    -4.726115    -18.610062    -7.389404    50.045410    60.556862    -15.461397    -11.335332    72.493080    -83.221329    15.823825    27.346273    1.093816    -11.194457    2.188599    1.751131    23.073473    5.937410    -2.188970    -6.198097    0.661716    -0.482169    -4.629439    -1.616299    -1.947528    18.868113    -0.203379    0.955837    -11.750476    0.103230    
8.359898    86.178444    -17.514957    -3.124032    0.412153    -68.363579    -3.611723    19.511961    0.289528    2.847954    -3.675649    7.245440    -3.969440    -10.319847    6.795446    -28.474237    -1.789623    7.105921    17.205040    70.240707    -71.776909    36.062801    -7.537004    -22.823977    88.279709    31.280235    109.591576    28.060589    -4.675747    -18.574411    -7.740556    50.119308    61.137192    -15.642148    -11.553968    72.323807    -82.555916    15.934468    27.471708    1.102243    -11.140824    3.000813    2.145508    23.082008    5.060370    -1.978418    -6.264425    0.838753    -0.411198    -4.572513    -1.538433    -2.039151    18.693253    -0.008081    1.137196    -11.594821    0.115746    
8.427478    86.194504    -17.384380    -3.121079    0.516189    -68.524216    -3.703584    19.493999    0.326013    3.103628    -3.473037    7.204493    -4.331675    -10.824702    6.699606    -28.429512    -1.784089    7.007941    17.252748    70.213226    -71.801781    36.056099    -7.497061    -22.684023    88.439384    31.155579    109.576050    28.081196    -4.712178    -18.627108    -7.864116    50.184174    61.468414    -15.794936    -11.643025    72.137291    -82.545090    15.996659    27.463118    1.148302    -11.017834    3.099070    2.056601    22.825438    5.143411    -1.830135    -6.178417    0.831477    -0.414693    -4.597440    -1.476564    -2.064860    18.582050    0.050501    1.261658    -11.472031    0.174016    
8.505300    86.215614    -17.239254    -3.113463    0.637850    -68.699059    -3.806506    19.467636    0.365399    3.317843    -3.282594    7.183695    -4.624816    -11.313340    6.630406    -28.404703    -1.741200    6.922492    17.140394    70.127487    -71.645882    36.003265    -7.444902    -22.593662    88.618011    31.124897    109.552185    28.122435    -4.679357    -18.649111    -7.970278    50.225876    61.721474    -15.840755    -11.588842    72.108986    -82.675201    16.148062    27.370335    1.192140    -10.897875    3.220300    1.984286    22.555471    5.197996    -1.669741    -6.088511    0.837564    -0.417456    -4.622213    -1.411947    -2.088052    18.439560    0.108587    1.385412    -11.329066    0.240679    
8.593757    86.241341    -17.083912    -3.096377    0.777404    -68.880432    -3.907559    19.431805    0.401772    3.486571    -3.118893    7.179685    -4.842340    -11.767285    6.585291    -28.398035    -1.700544    6.834518    16.965801    70.002205    -71.419151    35.980652    -7.392768    -22.470934    88.769058    31.163809    109.550415    28.140881    -4.715089    -18.656151    -8.134736    50.306393    62.113785    -15.949714    -11.677857    71.918404    -82.715210    16.266027    27.405897    1.232390    -10.793681    3.349174    1.928154    22.282452    5.226577    -1.503715    -5.996181    0.863510    -0.418773    -4.650858    -1.348512    -2.106808    18.265425    0.161056    1.492465    -11.169147    0.315997    
8.693145    86.271309    -16.923029    -3.064615    0.934600    -69.061806    -4.005421    19.383947    0.431741    3.617573    -2.994707    7.182195    -4.982958    -12.167790    6.556430    -28.399929    -1.735275    6.720858    16.817692    69.906738    -71.216881    36.014912    -7.363969    -22.285877    88.889481    31.278402    109.573517    28.184347    -4.693554    -18.665693    -8.262729    50.344040    62.409149    -15.962165    -11.625119    71.878723    -82.888107    16.463453    27.356050    1.269042    -10.716126    3.467826    1.883572    22.013268    5.238178    -1.337820    -5.901578    0.913971    -0.417751    -4.688612    -1.290025    -2.120593    18.061113    0.204104    1.568132    -10.996735    0.400656    
8.803461    86.305168    -16.761177    -3.013261    1.108679    -69.238564    -4.097658    19.319904    0.452320    3.694361    -2.911268    7.201082    -5.027978    -12.509009    6.555695    -28.430391    -1.698996    6.595499    16.333843    69.750412    -70.629555    35.899876    -7.295812    -22.298693    89.081299    31.539688    109.551605    28.210766    -4.731979    -18.665346    -8.430338    50.404236    62.807678    -16.048727    -11.682623    71.696465    -82.972672    16.619480    27.408998    1.303138    -10.672891    3.559091    1.843487    21.750603    5.247045    -1.176794    -5.803304    0.990048    -0.413490    -4.741116    -1.238762    -2.129425    17.829996    0.234108    1.605390    -10.818819    0.495098    
